<svg xmlns="http://www.w3.org/2000/svg" version="1.1" xmlns:xlink="http://www.w3.org/1999/xlink" xmlns:svgjs="http://svgjs.dev/svgjs" width="1440" height="560" preserveAspectRatio="none" viewBox="0 0 1440 560"><g mask="url(&quot;#SvgjsMask1425&quot;)" fill="none"><rect width="1440" height="560" x="0" y="0" fill="url(&quot;#SvgjsLinearGradient1426&quot;)"></rect><path d="M -277.10275082913904,83 C -181.1,141.4 10.9,354.4 202.89724917086096,375 C 394.9,395.6 490.9,188.2 682.897249170861,186 C 874.9,183.8 970.9,345.6 1162.897249170861,364 C 1354.9,382.4 1587.48,293 1642.897249170861,278 C 1698.32,263 1480.58,286.8 1440,289" stroke="rgba(51, 121, 194, 0.58)" stroke-width="2"></path><path d="M -689.9728559193439,487 C -593.97,407.4 -401.97,120 -209.97285591934397,89 C -17.97,58 78.03,311.6 270.02714408065606,332 C 462.03,352.4 558.03,189.6 750.0271440806561,191 C 942.03,192.4 1092.03,343.6 1230.027144080656,339 C 1368.02,334.4 1398.01,202.2 1440,168" stroke="rgba(51, 121, 194, 0.58)" stroke-width="2"></path><path d="M -737.5244032555306,257 C -641.52,292.4 -449.52,465.6 -257.5244032555306,434 C -65.52,402.4 30.48,112 222.47559674446939,99 C 414.48,86 510.48,369.2 702.4755967444694,369 C 894.48,368.8 1034.97,114 1182.4755967444694,98 C 1329.98,82 1388.5,250.8 1440,289" stroke="rgba(51, 121, 194, 0.58)" stroke-width="2"></path><path d="M -700.2689074947529,230 C -604.27,274.6 -412.27,461 -220.26890749475285,453 C -28.27,445 67.73,211.6 259.73109250524715,190 C 451.73,168.4 547.73,338.4 739.7310925052471,345 C 931.73,351.6 1079.68,193.6 1219.731092505247,223 C 1359.78,252.4 1395.95,438.2 1440,492" stroke="rgba(51, 121, 194, 0.58)" stroke-width="2"></path></g><defs><mask id="SvgjsMask1425"><rect width="1440" height="560" fill="#ffffff"></rect></mask><linearGradient x1="15.28%" y1="-39.29%" x2="84.72%" y2="139.29%" gradientUnits="userSpaceOnUse" id="SvgjsLinearGradient1426"><stop stop-color="#0e2a47" offset="0"></stop><stop stop-color="rgba(66, 85, 111, 1)" offset="1"></stop></linearGradient></defs></svg>