<svg xmlns:mydata="http://www.w3.org/2000/svg" mydata:contrastcolor="250E62" mydata:template="Default" mydata:presentation="2.5" mydata:layouttype="undefined" mydata:specialfontid="undefined" mydata:id1="713" mydata:id2="100" mydata:companyname="M Naga" mydata:companytagline="" version="1.1" xmlns="http://www.w3.org/2000/svg" xmlns:xlink="http://www.w3.org/1999/xlink" viewBox="0 0 550 470" width="550"  height="470" ><g fill="#7A7256" fill-rule="none" stroke="none" stroke-width="1" stroke-linecap="butt" stroke-linejoin="miter" stroke-miterlimit="10" stroke-dasharray="" stroke-dashoffset="0" font-family="none" font-weight="none" font-size="none" text-anchor="none" style="mix-blend-mode: normal"><g data-paper-data="{&quot;isGlobalGroup&quot;:true,&quot;bounds&quot;:{&quot;x&quot;:65,&quot;y&quot;:187.38361985706007,&quot;width&quot;:420,&quot;height&quot;:95.23276028587986}}" fill="#7A7256"><g data-paper-data="{&quot;isPrimaryText&quot;:true}" fill="#7A7256"><path d="M164.05737,200.38729l-10.19896,58.51652h-20.5254l9.17906,-52.39714l-14.02357,2.03979l-8.7966,50.35735h-20.5254l8.28665,-47.29766l-14.02357,2.03979l-7.90419,45.25787h-20.5254l12.49372,-71.3927h20.5254l-1.40236,8.03168l53.7995,-7.90419c2.20977,-0.25497 4.22832,-0.10624 6.05563,0.4462c1.82731,0.55244 3.3784,1.38111 4.65327,2.486c1.27487,1.10489 2.16728,2.50724 2.67723,4.20707c0.50995,1.69983 0.59494,3.56963 0.25497,5.60943z" data-paper-data="{&quot;glyphName&quot;:&quot;m&quot;,&quot;glyphIndex&quot;:0,&quot;lastGlyphOfWord&quot;:true,&quot;firstGlyphOfWord&quot;:true,&quot;word&quot;:1}" fill-rule="nonzero" fill="#7A7256"></path><path d="M269.10663,258.90381h-20.5254l9.05157,-51.75971l-21.29032,4.07958l-8.28665,47.68012h-6.75681h-13.6411l12.49372,-71.52019h20.39791l-0.89241,5.48194l25.24242,-4.8445c2.20977,-0.42496 4.27081,-0.42496 6.18312,0c1.9123,0.42496 3.54839,1.18988 4.90825,2.29477c1.35986,1.10489 2.35851,2.46475 2.99594,4.07958c0.63743,1.61483 0.78617,3.35716 0.4462,5.22697z" data-paper-data="{&quot;glyphName&quot;:&quot;n&quot;,&quot;glyphIndex&quot;:1,&quot;firstGlyphOfWord&quot;:true,&quot;word&quot;:2}" fill-rule="nonzero" fill="#7A7256"></path><path d="M404.37029,270.76009c-0.25497,1.61483 -0.87116,3.14468 -1.84856,4.58953c-0.9774,1.44485 -2.16728,2.69847 -3.56963,3.76087c-1.40236,1.06239 -2.99594,1.9123 -4.78076,2.54974c-1.78482,0.63743 -3.61213,0.95615 -5.48194,0.95615h-47.68012l2.9322,-17.84817h41.0508l1.14738,-5.8644h-27.4097c-1.86981,0 -3.59088,-0.31872 -5.16322,-0.95615c-1.57234,-0.63743 -2.86846,-1.48735 -3.88835,-2.54974c-1.0199,-1.06239 -1.76357,-2.31601 -2.23102,-3.76087c-0.46745,-1.44485 -0.57369,-3.01719 -0.31872,-4.71702l7.13927,-40.41337c0.50995,-2.80471 1.93355,-5.26946 4.27081,-7.39424c2.33726,-2.12478 5.12073,-3.52714 8.3504,-4.20707l35.44138,-6.8843c2.20977,-0.42496 4.27081,-0.42496 6.18312,0c1.9123,0.42496 3.54839,1.18988 4.90825,2.29477c1.35986,1.10489 2.35851,2.46475 2.99594,4.07958c0.63743,1.61483 0.78617,3.35716 0.4462,5.22697zM389.19934,240.92814l5.99189,-33.78404l-21.29032,4.07958l-5.22697,29.70446z" data-paper-data="{&quot;glyphName&quot;:&quot;g&quot;,&quot;glyphIndex&quot;:3,&quot;word&quot;:2}" fill-rule="nonzero" fill="#7A7256"></path><path d="M474.48812,258.90381h-47.80761c-1.86981,0 -3.59088,-0.31872 -5.16322,-0.95615c-1.57234,-0.63743 -2.86846,-1.48735 -3.88835,-2.54974c-1.0199,-1.06239 -1.76357,-2.31601 -2.23102,-3.76087c-0.46745,-1.44485 -0.57369,-2.9747 -0.31872,-4.58953l2.80471,-15.93587c0.25497,-1.61483 0.87116,-3.14468 1.84856,-4.58953c0.9774,-1.44485 2.16728,-2.69847 3.56963,-3.76087c1.40236,-1.06239 2.99594,-1.9123 4.78076,-2.54974c1.78482,-0.63743 3.61213,-0.95615 5.48194,-0.95615h27.4097l2.16728,-12.11126l-42.45316,8.28665l3.18717,-18.35812l46.27777,-8.92409c0.16998,0 0.29747,-0.0425 0.38246,-0.12749c2.20977,-0.33997 4.24957,-0.29747 6.11937,0.12749c1.86981,0.42496 3.48464,1.18988 4.8445,2.29477c1.35986,1.10489 2.33726,2.46475 2.9322,4.07958c0.59494,1.61483 0.72243,3.35716 0.38246,5.22697zM457.14989,241.05563l1.0199,-5.99189h-20.5254l-1.0199,5.99189z" data-paper-data="{&quot;glyphName&quot;:&quot;a&quot;,&quot;glyphIndex&quot;:4,&quot;lastGlyphOfWord&quot;:true,&quot;word&quot;:2}" fill-rule="nonzero" fill="#7A7256"></path><g data-paper-data="{&quot;isIcon&quot;:&quot;true&quot;,&quot;iconType&quot;:&quot;icon&quot;,&quot;rawIconId&quot;:&quot;1593277&quot;,&quot;selectedEffects&quot;:{&quot;container&quot;:&quot;&quot;,&quot;transformation&quot;:&quot;&quot;,&quot;pattern&quot;:&quot;&quot;},&quot;isDetailed&quot;:false,&quot;iconStyle&quot;:&quot;icon-in-text&quot;,&quot;bounds&quot;:{&quot;x&quot;:277.76795053379396,&quot;y&quot;:187.79443205574916,&quot;width&quot;:70.05635383458161,&quot;height&quot;:71.10956794425084},&quot;fillRule&quot;:&quot;evenodd&quot;,&quot;suitableAsStandaloneIcon&quot;:true}" fill-rule="evenodd" fill="#7A7256"><path d="M284.341,257.948c-1.572,-0.638 -2.868,-1.488 -3.888,-2.55c-1.02,-1.062 -1.764,-2.316 -2.231,-3.761c-0.468,-1.445 -0.574,-2.975 -0.319,-4.589l2.805,-15.936c0.02,-0.126 0.042,-0.25133 0.066,-0.376l5.926,-33.663l46.66,-9.052c2.21,-0.34 4.24967,-0.29733 6.119,0.128c1.87,0.42467 3.485,1.18933 4.845,2.294c1.36,1.105 2.337,2.465 2.932,4.08c0.595,1.615 0.723,3.357 0.383,5.227l-10.327,59.154h-47.807c-1.87,0 -3.591,-0.319 -5.164,-0.956zM318.97329,239.86036c-9.89353,3.50252 -21.54552,-1.09002 -23.62469,-12.13474c-0.94949,-5.04358 0.74116,-10.24624 5.07428,-13.20076c3.51147,-2.39436 8.53864,-3.04893 12.10493,-0.43249c4.27806,3.13861 6.55501,9.573 2.33385,13.71599c-4.57601,4.49125 -12.19342,2.05416 -13.00908,-4.38368c-0.65149,4.96013 3.09676,9.30226 7.91323,10.03512c4.60659,0.70092 9.24323,-1.41701 12.04714,-5.05555c5.49504,-7.13063 2.91836,-17.49352 -4.25477,-22.35905c-7.27981,-4.93796 -17.25638,-3.66723 -23.91262,1.73303c-6.37846,5.1748 -9.0153,13.37406 -7.65479,21.33932c1.69846,9.94379 9.39707,18.27641 19.19974,20.7087c4.97756,1.23506 10.23208,0.95939 15.14017,-0.44855c9.32626,-2.67542 16.53578,-10.61081 18.32542,-20.22613c2.28762,-12.29103 -3.71388,-26.36092 -15.36249,-31.57308c13.41336,11.24193 14.32563,35.68068 -4.32032,42.28186z" data-paper-data="{&quot;isPathIcon&quot;:true}" fill="#7A7256"></path></g></g></g></g></svg>